<svg version="1.1" xmlns="http://www.w3.org/2000/svg" x="0" y="0" viewBox="0 0 128 128" xml:space="preserve">
  <style>
    .st0{fill:#ff7a21;stroke:#953d05;stroke-miterlimit:10}
  </style>
  <circle class="st0" cx="64" cy="64" r="6.5"/>
  <path class="st0" d="M64 2c-1.7 0-3 1.3-3 3v37.8h6V5c0-1.6-1.3-3-3-3zM19.5 19.4c-1.2 1.2-1.2 3.1 0 4.3l15.9 15.9 4.3-4.3-16-15.9c-1.1-1.2-3-1.2-4.2 0zm88 0c1.2 1.2 1.2 3.1 0 4.3L91.7 39.5l-4.3-4.3 15.9-15.9c1.1-1.1 3-1.1 4.2.1zm-88 88.2c-1.2-1.2-1.2-3.1 0-4.3l15.9-15.9 4.3 4.3-15.9 15.9c-1.2 1.2-3.1 1.2-4.3 0zm88 0c1.2-1.2 1.2-3.1 0-4.3L91.7 87.5l-4.3 4.3 15.9 15.9c1.1 1.1 3 1.1 4.2-.1zM2.1 64c0 1.7 1.3 3 3 3h37.8v-6H5.1c-1.7 0-3 1.3-3 3zm123.8 0c0 1.7-1.3 3-3 3H85.2v-6H123c1.6 0 2.9 1.3 2.9 3zM64 125.9c-1.7 0-3-1.3-3-3V85.2h6V123c0 1.6-1.3 2.9-3 2.9z"/>
</svg>
