<svg version="1.1" xmlns="http://www.w3.org/2000/svg" x="0" y="0" viewBox="0 0 30 30" xml:space="preserve">
  <style>.st0{fill:#ceb3ff}</style>
  <circle class="st0" cx="15" cy="15.34" r="5.39"/>
  <path class="st0" d="M17.64 2.33C17.29 1.2 16.25.38 15 .38s-2.29.82-2.64 1.95C6.29 3.55 1.72 8.91 1.72 15.34c0 7.34 5.95 13.28 13.28 13.28s13.28-5.95 13.28-13.28c0-6.43-4.57-11.79-10.64-13.01zM15 26.69c-6.26 0-11.34-5.08-11.34-11.34 0-5.39 3.77-9.9 8.81-11.05.44.97 1.4 1.64 2.53 1.64s2.1-.68 2.53-1.64c5.04 1.15 8.81 5.66 8.81 11.05 0 6.26-5.08 11.34-11.34 11.34z"/>
</svg>
