<svg version="1.1" fill="#aee3fc" xmlns="http://www.w3.org/2000/svg" viewBox="0 0 47 30">
<path d="M30,0H17H0l17,30h13h17V0H30z M36.81,17.81c0.25,0.23,0.25,0.6,0,0.84l-1.26,1.18c-0.25,0.23-0.65,0.23-0.89,0l-4.61-4.31
	l-4.61,4.31c-0.25,0.23-0.65,0.23-0.89,0l-1.26-1.18c-0.25-0.23-0.25-0.6,0-0.84l4.61-4.31l-4.61-4.31c-0.25-0.23-0.25-0.6,0-0.84
	l1.26-1.18C24.66,7.06,24.83,7,24.99,7c0.16,0,0.32,0.06,0.45,0.17l4.61,4.31l4.61-4.31c0.25-0.23,0.65-0.23,0.89,0l1.26,1.18
	c0.25,0.23,0.25,0.61,0,0.84L32.2,13.5L36.81,17.81z"/>
</svg>
