<?xml version="1.0" standalone="no"?>
<!DOCTYPE svg PUBLIC "-//W3C//DTD SVG 20010904//EN"
 "http://www.w3.org/TR/2001/REC-SVG-20010904/DTD/svg10.dtd">
<svg version="1.0" xmlns="http://www.w3.org/2000/svg"
 width="512.000000pt" height="512.000000pt" viewBox="0 0 512.000000 512.000000"
 preserveAspectRatio="xMidYMid meet">
<metadata>
Created by potrace 1.14, written by Peter Selinger 2001-2017
</metadata>
<g transform="translate(0.000000,512.000000) scale(0.100000,-0.100000)"
fill="#000000" stroke="none">
<path d="M0 2560 l0 -2560 2560 0 2560 0 0 2560 0 2560 -2560 0 -2560 0 0
-2560z m1550 470 l0 -380 280 0 280 0 0 380 0 380 230 0 230 0 0 -630 0 -630
554 0 c467 0 555 2 565 14 7 8 11 34 9 58 l-3 43 -320 5 c-274 5 -326 8 -359
23 -21 9 -45 17 -52 17 -21 0 -115 64 -151 102 -84 89 -132 247 -133 433 0
265 96 450 277 530 l68 30 623 3 c342 2 622 -1 622 -5 0 -4 -36 -75 -79 -158
-44 -82 -100 -192 -125 -242 l-46 -93 -418 0 c-465 0 -462 0 -462 -63 1 -67
-7 -66 341 -69 300 -3 317 -4 381 -27 37 -13 76 -32 87 -42 11 -11 24 -19 28
-19 17 0 94 -98 122 -155 49 -102 61 -166 61 -326 -1 -200 -38 -334 -117 -419
-13 -13 -23 -27 -23 -32 0 -4 -4 -8 -10 -8 -5 0 -21 -10 -35 -22 -14 -12 -55
-35 -92 -52 l-68 -31 -495 0 -495 0 -41 80 c-106 209 -128 250 -136 253 -4 2
-8 12 -8 22 0 9 -7 23 -15 30 -8 7 -15 21 -15 31 0 10 -5 21 -11 24 -6 4 -14
17 -19 29 -5 13 -9 -76 -9 -226 l-1 -248 -230 0 -230 0 0 250 0 250 -280 0
-280 0 0 -188 0 -188 -32 -15 c-32 -16 -91 -48 -173 -95 -22 -13 -56 -32 -75
-42 -95 -52 -131 -72 -155 -88 l-25 -16 0 316 0 316 -36 0 c-38 0 -73 29 -74
62 0 9 -4 18 -8 20 -5 2 -33 52 -62 111 -29 59 -57 110 -62 113 -4 3 -8 13 -8
23 0 10 -7 24 -15 31 -8 7 -15 21 -15 30 0 10 -4 20 -8 22 -7 3 -52 83 -52 93
0 3 77 5 170 5 l170 0 0 380 0 380 230 0 230 0 0 -380z"/>
</g>
</svg>
