<svg fill="#AEE3FCFF" xmlns="http://www.w3.org/2000/svg" viewBox="0 0 512 512">
    <path fill="#7db6c9" d="M221.14 0h69.85C298.41 1.99 304 7.77 304 15.59v207.84q0 .53.53.54 29.12.14 58.86-.07 7.37-.05 10.4 1.15c8.29 3.28 12.39 12.56 9.09 20.87q-1.12 2.83-6.66 9.16-53.15 60.78-107.52 122.88c-3.49 3.99-8.07 6.36-13.38 6.06q-7.07-.4-11.56-5.53-54.62-62.4-111.55-127.48c-4.34-4.96-5.55-12.04-2.6-18.05 2.3-4.66 7.67-8.91 13.27-8.92q32.39-.08 64.54-.03.55.01.55-.55.08-102.87.02-206.88-.01-4.13 1.32-7.09 3.26-7.27 11.83-9.49Z"/><path fill="#7db6c9" d="M466.88 512H44.75q-15.32-2.11-23.57-14.41-3.09-4.61-4.37-10.18-.86-3.7-.85-8.32.08-64.63.04-126.04a1.05 1.04 90 0 1 1.04-1.05H79.5q.5 0 .5.5v95q0 .5.5.5h351q.5 0 .5-.5v-94.25a1.25 1.25 0 0 1 1.25-1.25h62.25q.51 0 .51.5-.03 62.69.01 127.76 0 6.73-2.97 12.92-7.91 16.45-26.17 18.82Z"/>
</svg>
