<?xml version="1.0" standalone="no"?>
<!DOCTYPE svg PUBLIC "-//W3C//DTD SVG 20010904//EN"
 "http://www.w3.org/TR/2001/REC-SVG-20010904/DTD/svg10.dtd">
<svg version="1.0" xmlns="http://www.w3.org/2000/svg"
 width="512.000000pt" height="512.000000pt" viewBox="0 0 512.000000 512.000000"
 preserveAspectRatio="xMidYMid meet">
<metadata>
Created by potrace 1.14, written by Peter Selinger 2001-2017
</metadata>
<g transform="translate(0.000000,512.000000) scale(0.100000,-0.100000)"
fill="#000000" stroke="none">
<path d="M0 2560 l0 -2560 2560 0 2560 0 0 2560 0 2560 -2560 0 -2560 0 0
-2560z m1188 583 l2 -463 380 0 380 0 2 463 3 462 308 3 307 2 0 -770 0 -770
747 0 c681 0 748 1 765 17 22 20 24 81 4 109 -14 18 -34 19 -438 25 -467 6
-474 7 -616 74 -51 24 -93 54 -137 98 -112 112 -163 248 -172 463 -12 276 48
460 191 591 104 95 219 137 421 153 142 11 1535 13 1535 2 0 -4 -78 -142 -173
-307 l-173 -300 -575 -5 c-315 -3 -575 -6 -576 -8 -1 -1 -9 -9 -17 -18 -21
-20 -20 -83 1 -106 15 -17 39 -18 348 -18 454 0 576 -15 720 -88 68 -34 184
-153 217 -223 57 -119 73 -199 73 -379 0 -125 -4 -184 -18 -243 -52 -221 -190
-364 -412 -429 -80 -23 -81 -23 -724 -23 l-644 0 -171 296 -171 297 -3 -299
-2 -299 -310 0 -310 0 0 305 0 305 -380 0 -380 0 0 -228 0 -227 -305 -153
c-168 -83 -307 -152 -310 -152 -3 0 -5 171 -5 380 l0 380 -53 0 -52 0 -178
308 -177 307 230 3 230 2 0 465 0 465 308 -2 307 -3 3 -462z"/>
</g>
</svg>
