<svg xmlns="http://www.w3.org/2000/svg" viewBox="0 0 109 93"><path fill="#9fe5ff" d="M52.15 0h4.81c14.22 1.65 23.53 9.24 28.68 22.4q.23.59-.4.59l-4.03.01q-.53 0-.74-.49C70.16-1.3 38.86-.62 28.36 22.79q-.1.23-.35.22l-4.65-.05q-.3 0-.19-.28Q30.67 2.55 52.15 0Z"/><path fill="#9fe5ff" d="M109 30.2v3.59l-39.65.19a.63.62 5.5 0 0-.62.5c-3.09 15.32-24.81 15.22-28.46-.01q-.12-.52-.66-.52L0 33.7v-3.46l39.58-.21q.51 0 .62-.49c3.59-15.07 25.44-15.47 28.53-.01a.62.61 84.2 0 0 .6.5l39.67.17ZM64.06 32a9.56 9.05 0 0 0-9.56-9.05A9.56 9.05 0 0 0 44.94 32a9.56 9.05 0 0 0 9.56 9.05A9.56 9.05 0 0 0 64.06 32Z"/><path fill="#9fe5ff" d="M28.89 41.25c9.69 22.34 41.56 22.26 51.22 0q.11-.25.39-.25l4.77.02a.17.16 9.7 0 1 .16.22c-10.71 29.22-50.64 28.66-61.9.04a.19.19 0 0 1 .17-.26l4.8-.03q.28 0 .39.26Z"/><path fill="#9fe5ff" d="M67.76 86.38a1.47 1.45-29.5 0 0 1.55.42c16.91-5.49 28.76-18.37 32.83-35.53q.07-.28.35-.27l4.47.01q.24 0 .19.24c-3.66 18.62-16.6 33.14-34.26 39.54q-3 1.09-6.72 1.09-11.63 0-23.26-.01-3.84 0-6.89-1.1C18.51 84.46 5.38 69.68 1.86 51.24q-.05-.23.18-.23L6.48 51q.22-.01.28.21 6.86 26.6 32.82 35.57a2.83 2.82 29.8 0 0 3.07-.83l3.12-3.64a.9.9 0 0 1 .68-.31h16.72a1.68 1.67-20.6 0 1 1.26.57l3.33 3.81Z"/></svg>