<svg xmlns="http://www.w3.org/2000/svg" viewBox="0 0 84 84"><path fill="#9fe5ff" d="M42.64 0h.83q2.36-.01 3.95.81.5.26.51.82l.27 9.44a1.85 1.84-2.1 0 1-1.77 1.89l-3.81.17a2.08 2.07 87.8 0 1-2.16-2.01l-.31-9.33a1.13 1.1-23.7 0 1 .33-.81Q41.3.15 42.64 0ZM59.23 5.02l-.28 6.21A1.85 1.85 0 0 1 57.1 13h-4.09a1.85 1.85 0 0 1-1.84-1.94l.38-7.68a1.85 1.85 0 0 1 2.48-1.65l3.99 1.47a1.85 1.85 0 0 1 1.21 1.82Z"/><rect width="7.24" height="14.94" x="-3.62" y="-7.47" fill="#9fe5ff" rx="2" transform="rotate(-5.1 143.544 -381.484)"/><rect width="7.32" height="13.6" x="-3.66" y="-6.8" fill="#9fe5ff" rx="1.98" transform="rotate(-5.1 189.354 -275.95)"/><path fill="#9fe5ff" d="M0 46.09v-8.31q1.67-15 12.27-25.5 1.51-1.49 2.82-.05a1.91 1.9 46.5 0 1-.06 2.63C.41 29.62-.17 54.57 15.12 69.11a1.82 1.81-45.8 0 1 .03 2.6q-1.7 1.71-3.45-.14Q1.59 60.91 0 46.09ZM84 37.9v8.32q-1.66 14.99-12.21 25.66a1.94 1.93 37.7 0 1-2.36.3c-1.47-.88-1.11-2.26-.08-3.36q13.44-14.33 9.91-34.3-2.04-11.58-10.21-19.53a2.02 2.02 0 0 1-.04-2.86q1.21-1.25 2.57.08Q82.37 22.74 84 37.9ZM53.95 23.32l-10.64-1.69q-.47-.08-.62-.53l-1.61-4.87q-.2-.61.44-.62l19.72-.35q.49 0 .58.49l2.07 12.46q.11.65-.22 1.22l-9.58 16.55q-.25.43-.73.56l-16.99 4.91a1.1 1.1 0 0 0 .3 2.15h17.34q.67 0 .68.66l.47 25.77q.05 2.8-2.74 2.86-9.68.19-18.41.03-3.88-.07-7.19-1.98-.45-.26-.42-.78.76-16.62 1.53-33.15.03-.67-.56-1.64-5.23-8.66-7.1-14.7-.59-1.93.79-4.64.22-.42.69-.45l14.46-.95q.61-.04.55.58l-1.78 16.07a.31.31 0 0 0 .56.21l7.86-11.32a1.64 1.62 6.9 0 1 .77-.6c3.2-1.24 8.44-2.43 10.06-5.7q.23-.47-.28-.55Z"/></svg>