<svg xmlns="http://www.w3.org/2000/svg" viewBox="0 0 56 56"><path fill="#77acbf" fill-opacity=".749" d="M26.14 0h3.83c14.59 2.63 19.47 19.49 8.13 29.17q-.43.38.1.58Q53.38 35.57 56 51.28V56H1.52Q.5 55.34 0 54.39v-3.15Q2.56 35.9 17.53 29.8q.71-.29.13-.79C6.54 19.34 11.72 2.24 26.14 0Zm13.5 16.32A11.64 11.64 0 0 0 28 4.68a11.64 11.64 0 0 0-11.64 11.64A11.64 11.64 0 0 0 28 27.96a11.64 11.64 0 0 0 11.64-11.64Zm11.49 33.8c-6.61-23.11-40.64-23.46-46.29.31a.69.69 0 0 0 .67.85h44.74a.91.91 0 0 0 .88-1.16Z"/></svg>