<svg version="1.1" id="Слой_1" xmlns="http://www.w3.org/2000/svg" x="0" y="0" viewBox="0 0 30 30" xml:space="preserve">
  <style>
    .st0{fill:#9fe5ff}
  </style>
  <path class="st0" d="M7.38 7.36v15.28h15.24V7.36H7.38zM8.7 21.2v-2.09h12.58v2.09H8.7zm0-3.47v-2.09h12.58v2.09H8.7zm0-3.41v-2.09h12.58v2.09H8.7zm0-3.47V8.76h12.58v2.09H8.7zm3.88-6.93h-.01v1.41h4.85V3.92h-.01zm-.01 20.77v1.41h4.85v-1.41h-4.84z"/>
  <path class="st0" d="M22.53.45H7.46L.45 7.52v15.03l6.93 6.99h15.24l6.93-6.99V7.52L22.53.45zm5.6 21.38-6.26 6.32H8.12l-6.26-6.32V8.25L8.2 1.86h13.6l6.33 6.39v13.58z"/>
</svg>
