<?xml version="1.0" encoding="utf-8"?>
<!-- Generator: Adobe Illustrator 23.0.3, SVG Export Plug-In . SVG Version: 6.00 Build 0)  -->
<svg version="1.1" id="Слой_1" xmlns="http://www.w3.org/2000/svg" xmlns:xlink="http://www.w3.org/1999/xlink" x="0px" y="0px"
	 viewBox="0 0 480 480" style="enable-background:new 0 0 480 480;" xml:space="preserve">
<style type="text/css">
	.st0{fill:#D6CECE;}
</style>
<path class="st0" d="M240,0C107.5,0,0,107.5,0,240s107.5,240,240,240s240-107.5,240-240C479.9,107.5,372.5,0.1,240,0z M447.6,324.1
	l-68.3,11.8c7.8-28.7,12-58.2,12.6-87.9h71.9C462.9,274.1,457.4,299.9,447.6,324.1z M16.2,248h71.9c0.5,29.7,4.7,59.2,12.6,87.9
	l-68.3-11.8C22.6,299.9,17.1,274.1,16.2,248z M32.4,155.9l68.3-11.8c-7.8,28.7-12,58.2-12.6,87.9H16.2
	C17.1,205.9,22.6,180.1,32.4,155.9z M248,128.4c28.7,0.4,57.4,3,85.8,7.8l28.2,4.9c8.7,29.5,13.3,60.1,13.9,90.8H248V128.4z
	 M336.5,120.5c-29.2-5-58.8-7.7-88.5-8.1v-96c45.9,4.4,85.7,46.4,108.3,107.5L336.5,120.5z M232,112.4c-29.7,0.4-59.2,3.1-88.5,8.1
	l-19.8,3.4C146.3,62.8,186.1,20.8,232,16.4V112.4z M146.2,136.3c28.3-4.8,57-7.5,85.8-7.8V232H104.1c0.5-30.8,5.2-61.3,13.9-90.8
	L146.2,136.3z M104.1,248H232v103.6c-28.7-0.4-57.4-3-85.8-7.8l-28.2-4.9C109.3,309.3,104.7,278.8,104.1,248z M143.5,359.5
	c29.2,5,58.8,7.7,88.5,8.1v96c-45.9-4.4-85.7-46.4-108.3-107.5L143.5,359.5z M248,367.6c29.7-0.4,59.2-3.1,88.5-8.1l19.8-3.4
	c-22.6,61.1-62.4,103.1-108.3,107.5L248,367.6L248,367.6z M333.8,343.7c-28.3,4.8-57,7.5-85.8,7.8V248h127.9
	c-0.5,30.8-5.2,61.3-13.9,90.8L333.8,343.7z M391.9,232c-0.5-29.7-4.7-59.2-12.6-87.9l68.3,11.8c9.8,24.2,15.3,50,16.2,76.1H391.9z
	 M439.5,138.3L374,127c-11.8-38.4-33.8-72.8-63.6-99.6C366.3,46,412.6,85.9,439.5,138.3z M169.6,27.4C139.7,54.2,117.7,88.6,106,127
	l-65.4,11.3C67.4,85.9,113.7,46,169.6,27.4z M40.5,341.7L106,353c11.8,38.4,33.8,72.8,63.6,99.6C113.7,434,67.4,394.1,40.5,341.7z
	 M310.4,452.6c29.9-26.8,51.9-61.2,63.6-99.6l65.4-11.3C412.6,394.1,366.3,434,310.4,452.6z"/>
</svg>
