<svg xmlns="http://www.w3.org/2000/svg" viewBox="0 0 30 30" xml:space="preserve">
  <path d="M15.61 2.17c5 0 9.33 2.86 11.46 7.02l-6.55 2.73v.01c-1.03-1.63-2.84-2.72-4.91-2.72-3.2 0-5.8 2.6-5.8 5.8s2.6 5.8 5.8 5.8c2.07 0 3.88-1.09 4.91-2.72v.01l6.5 2.92c-2.15 4.11-6.45 6.92-11.41 6.92-7.11 0-12.87-5.76-12.87-12.87S8.5 2.17 15.61 2.17m0-2C7.41.17.74 6.84.74 15.04s6.67 14.87 14.87 14.87c5.55 0 10.6-3.06 13.18-7.99.26-.49.3-1.06.12-1.58s-.57-.94-1.07-1.17l-6.38-2.86c-.12-.06-.25-.12-.38-.16-.18-.05-.37-.08-.56-.08-.67 0-1.32.34-1.69.93-.7 1.12-1.9 1.79-3.21 1.79-2.09 0-3.8-1.7-3.8-3.8 0-2.09 1.7-3.8 3.8-3.8 1.31 0 2.51.67 3.21 1.79.37.59 1.02.94 1.69.94.18 0 .37-.03.55-.08.12-.04.24-.08.36-.14l6.41-2.67c.51-.21.92-.63 1.11-1.16.19-.52.16-1.1-.1-1.6-2.56-4.99-7.63-8.1-13.24-8.1z" fill="#fff19c"/>
</svg>
