<svg version="1.1" id="Слой_1" xmlns="http://www.w3.org/2000/svg" x="0" y="0" viewBox="0 0 30 30" xml:space="preserve">
  <style>
    .st0{fill:#76e6ff}
  </style>
  <path class="st0" d="M20.16 20.76c.44.3.85.63 1.23 1 1.8-1.7 2.92-4.1 2.92-6.76 0-5.14-4.17-9.31-9.31-9.31S5.69 9.86 5.69 15c0 2.67 1.13 5.07 2.92 6.76.38-.37.79-.7 1.23-1-1.58-1.41-2.59-3.47-2.59-5.76 0-4.28 3.47-7.75 7.75-7.75s7.75 3.47 7.75 7.75c0 2.29-1.01 4.35-2.59 5.76z"/>
  <path class="st0" d="M15 .61C7.05.61.61 7.05.61 15c0 4.55 2.12 8.6 5.41 11.23.12-.51.27-1.01.47-1.48-2.72-2.37-4.44-5.86-4.44-9.75C2.05 7.85 7.85 2.05 15 2.05S27.95 7.85 27.95 15c0 3.89-1.73 7.38-4.45 9.75.2.47.35.97.47 1.48 3.29-2.64 5.41-6.69 5.41-11.23C29.39 7.05 22.95.61 15 .61z"/>
  <path class="st0" d="M15 21.34c-3.58 0-6.48 2.89-6.51 6.46 1.96 1 4.16 1.57 6.51 1.57s4.55-.57 6.51-1.57c-.03-3.57-2.93-6.46-6.51-6.46z"/>
  <circle class="st0" cx="15" cy="15" r="4.23"/>
</svg>
